# xmcd
#
# Track frame offsets: 
#        150
#        21605
#        32933
#        46258
#        61143
#        74686
#        92595
#        105195
#        122428
#        140790
#        155933
#        166747
#        187049
#        187499
#
# Disc length: 2715 seconds
#
# Revision: 0
# Processed by: cddbd v1.5.2PL0 Copyright (c) Steve Scherf et al.
# Submitted via: ExactAudioCopy v0.95a5
#
DISCID=cf0a990e
DTITLE=Live Country Music - Live Country Music
DYEAR=2005
DGENRE=Country
TTITLE0=Light of the World
TTITLE1=Squirrels
TTITLE2=Right or Wrong
TTITLE3=Greedy Fingers
TTITLE4=Pretty Girl
TTITLE5=Humility
TTITLE6=Country Stars
TTITLE7=Petals, Leaves and Snow
TTITLE8=Is There Something Going On?
TTITLE9=Why I Can't See You Tonight
TTITLE10=The Moon
TTITLE11=Why Can't I Dream in Colour?
TTITLE12=(untitled)
TTITLE13=Girls on Bicycles
EXTD=
EXTT0=
EXTT1=
EXTT2=
EXTT3=
EXTT4=
EXTT5=
EXTT6=
EXTT7=
EXTT8=
EXTT9=
EXTT10=
EXTT11=
EXTT12=
EXTT13=
PLAYORDER=
